<svg version="1.0" xmlns="http://www.w3.org/2000/svg" width="400.000000pt" height="400.000000pt" viewBox="0 0 400.000000 400.000000" preserveAspectRatio="xMidYMid meet">
  <g transform="translate(0.000000,400.000000) scale(0.100000,-0.100000)" fill="#000000" stroke="none">
    <path d="M1815 3990 c-188 -16 -419 -75 -605 -155 -559 -239 -995 -749 -1145
    -1341 -47 -182 -59 -286 -58 -494 0 -209 13 -318 57 -493 151 -593 586 -1103
    1146 -1342 504 -215 1076 -215 1580 0 560 239 995 749 1146 1342 44 175 57
    284 57 493 1 208 -11 312 -58 494 -54 215 -150 428 -274 613 -415 616 -1104
    945 -1846 883z m353 -180 c444 -48 813 -222 1120 -531 310 -311 483 -688 524
    -1144 28 -309 -41 -658 -187 -946 -95 -189 -195 -327 -346 -478 -310 -309
    -687 -482 -1144 -523 -351 -32 -740 59 -1058 246 -369 217 -661 577 -798 983
    -173 512 -112 1063 169 1528 181 300 478 564 796 709 282 129 629 187 924 156z"/>
    <path d="M1626 3290 c-252 -40 -502 -179 -659 -366 -120 -142 -199 -307 -237
    -495 -28 -132 -24 -329 9 -452 87 -330 313 -600 612 -728 162 -70 231 -84 429
    -83 148 0 187 3 256 22 113 30 238 84 319 137 37 25 69 45 70 45 1 0 19 -26
    40 -57 165 -249 462 -496 659 -547 32 -9 71 -13 85 -10 107 26 94 158 -36 352
    -100 151 -360 394 -494 463 l-38 19 35 52 c307 462 196 1103 -249 1439 -104
    79 -257 152 -384 185 -110 28 -314 40 -417 24z m360 -240 c306 -78 547 -323
    621 -631 23 -97 23 -287 0 -382 -69 -283 -277 -515 -547 -609 -473 -166 -985
    116 -1107 609 -11 47 -16 109 -16 198 0 111 4 143 27 220 99 332 361 562 701
    615 83 12 228 4 321 -20z"/>
    <path d="M1360 2741 l0 -81 54 0 c76 0 184 -24 274 -62 284 -118 488 -395 517 -702 l7 -76 76 0 75 0 -6 88 c-13 181 -92 378 -211 528 -173 219 -428 355 -708 379 l-78 7 0 -81z"/>
    <path d="M1340 2448 l0 -76 74 -11 c95 -14 151 -33 229 -78 153 -89 260 -255 282 -435 l6 -58 75 0 74 0 0 41 c0 67 -30 180 -70 264 -115 241 -340 399 -602 422 l-68 6 0 -75z"/>
    <path d="M1340 2191 l0 -68 49 -6 c67 -8 138 -46 188 -100 51 -55 67 -86 83 -159 l13 -58 69 0 c77 0 74 -5 53 93 -36 169 -167 309 -330 351 -32 9 -74 16 -92 16 l-33 0 0 -69z"/>
    <path d="M1365 1990 c-85 -35 -106 -158 -39 -225 56 -56 137 -59 192 -6 72 67 57 182 -30 227 -30 15 -91 18 -123 4z"/>
    <path d="M1480 814 c-89 -5 -240 -25 -267 -35 -34 -13 -28 -27 15 -38 87 -24 282 -33 566 -28 278 5 395 15 439 39 20 10 20 11 1 21 -39 22 -197 37 -439 41 -137 2 -279 2 -315 0z"/>
  </g>
</svg>
