<svg width="192px" height="38px" viewBox="0 0 192 38" version="1.1" xmlns="http://www.w3.org/2000/svg" xmlns:xlink="http://www.w3.org/1999/xlink"><title>Podchaser/Logo/Icon Text/Light</title>
  <defs>
    <linearGradient x1="50%" y1="0%" x2="50%" y2="100%" id="linearGradient-1">
      <stop stop-color="#4C3D79" offset="0%"></stop>
      <stop stop-color="#0C0D2C" offset="100%"></stop>
    </linearGradient>
    <linearGradient x1="100%" y1="50%" x2="0%" y2="50%" id="linearGradient-2">
      <stop stop-color="#000000" offset="0%"></stop>
      <stop stop-color="#E3E3E3" stop-opacity="0" offset="51.095389%"></stop>
      <stop stop-color="#000000" offset="100%"></stop>
    </linearGradient>
    <radialGradient cx="50%" cy="50%" fx="50%" fy="50%" r="50%" id="radialGradient-3">
      <stop stop-color="#FFFFFF" stop-opacity="0" offset="0%"></stop>
      <stop stop-color="#FFFFFF" stop-opacity="0" offset="91.8478261%"></stop>
      <stop stop-color="#FFFFFF" offset="100%"></stop>
    </radialGradient>
  </defs>
  <g id="Podchaser/Logo/Icon-Text/Light" stroke="none" stroke-width="1" fill="none" fill-rule="evenodd">
    <path d="M184.691275,14 L184.691275,14.9635447 C185.351981,14.2100536 186.965627,13.9534568 188.241723,14.0079515 L188.492059,14.0229433 L188.7311,14.0459006 C189.467756,14.1308618 190,14.3306682 190,14.5981191 C190,14.6909975 189.981876,14.8253625 189.949543,14.9887435 L189.904173,15.1979303 L189.846665,15.4301838 L189.778521,15.6807153 L189.701246,15.9447361 C189.68769,15.9895977 189.673815,16.0348217 189.659654,16.0803086 L189.5715,16.3555846 L189.477971,16.6323782 L189.380571,16.9059007 L189.280803,17.1713635 L189.18017,17.4239777 C189.146649,17.505509 189.113234,17.5841007 189.080176,17.6589548 L188.982322,17.8715061 C188.821853,18.2044096 188.676568,18.4239192 188.577783,18.4302705 C186.181524,18.4866808 185.266478,19.177393 185.226992,20.9338552 L185.22565,21.0552705 L185.226992,29.4281318 L181.029784,29.4281318 L181,24.8930954 L181.028672,17.8094832 L181.028442,14 L184.691275,14 Z" id="Path" fill="#FFFFFF" fill-rule="nonzero"></path>
    <path d="M178.865646,20.3109782 L178.959333,20.8794991 L178.959333,20.8794991 L178.97538,20.9984192 L178.97538,20.9984192 L178.984734,21.0843634 L178.984734,21.0843634 L178.995307,21.2217974 L178.995307,21.2217974 L179,21.3676783 L179,21.3676783 L178.9989,21.4686393 C178.977174,22.2010539 178.64298,23.1087883 177.040682,23.2122181 L176.883204,23.2198076 L176.883204,23.2198076 L174.761836,23.2828965 L174.761836,23.2828965 L168.241118,23.4413667 L168.241118,23.4413667 C168.468754,24.8974923 169.953207,25.9825733 172.786063,25.9825733 C174.084875,25.9825733 175.483832,25.4865037 176.982932,24.4943645 L178.88996,27.5616908 C176.834773,29.1872303 174.665577,30 172.382372,30 C170.037478,30 168.434981,29.3741229 167.293836,28.5872806 L167.121877,28.4650207 C166.981548,28.3621836 166.848565,28.2570928 166.722336,28.1507277 L166.574065,28.0225408 L166.574065,28.0225408 L166.43205,27.8935069 C166.40889,27.8719515 166.385981,27.8503766 166.363318,27.8287899 L166.230262,27.6991908 L166.230262,27.6991908 L166.102893,27.5696853 L166.102893,27.5696853 L165.980985,27.4406495 C165.961109,27.4192036 165.941452,27.3977929 165.922007,27.3764253 C164.643865,25.9718577 164.069207,24.1223339 164.005073,22.2353399 C163.854748,17.8124279 167.063486,14.1546559 171.224733,14.0053528 C174.950549,13.8716727 178.139281,16.2492276 178.865646,20.3109782 L178.865646,20.3109782 Z M171.381708,17.7785413 C169.769225,17.8363963 168.61776,18.7642938 168.258297,20.308799 L168.225994,20.4601837 L174.740498,20.2264471 C174.401403,18.7034677 173.046207,17.7188201 171.381708,17.7785413 Z" id="e" fill="#FFFFFF" fill-rule="nonzero"></path>
    <path d="M162.531707,18.6988848 C162.414634,17.4498141 162.180488,16.795539 161.565854,15.9925651 C160.570732,14.7137546 158.990244,14 157.087805,14 C153.780488,14 151.146341,16.1710037 151.146341,18.936803 C151.146341,20.8698885 152.463415,22.5947955 154.278049,23.070632 C157.643902,23.9628253 157.643902,23.9628253 158.2,24.4089219 C158.434146,24.6171004 158.580488,24.9442379 158.580488,25.2416357 C158.580488,25.8959108 157.907317,26.401487 157.058537,26.401487 C156.092683,26.401487 155.507317,25.9256506 155.390244,25.0334572 L151,25.0334572 C151.146341,26.5799257 151.556098,27.4423792 152.521951,28.3643123 C153.663415,29.4349442 155.156098,30 156.882927,30 C160.365854,30 163,27.7992565 163,24.9144981 C163,23.6356877 162.531707,22.5650558 161.595122,21.7620818 C160.863415,21.1375465 160.102439,20.8104089 157.84878,20.1858736 C156.297561,19.7695167 155.565854,19.2342007 155.565854,18.5501859 C155.565854,17.9851301 156.121951,17.598513 156.970732,17.598513 C157.760976,17.598513 158.141463,17.9256506 158.229268,18.6988848 L162.531707,18.6988848 Z" id="s" fill="#FFFFFF" fill-rule="nonzero"></path>
    <path d="M145.891501,29.4944238 L150,29.4944238 L150,14.535316 L145.891501,14.535316 L145.891501,16.1115242 C145.081374,14.6840149 143.692586,14 141.493671,14 C137.095841,14 134,17.3011152 134,22 C134,26.7286245 137.009042,30 141.377939,30 C143.721519,30 145.197107,29.3159851 145.891501,27.8884758 L145.891501,29.4944238 Z M138.368897,21.9702602 C138.368897,19.8587361 139.960217,18.2230483 141.985533,18.2230483 C144.097649,18.2230483 145.660036,19.8289963 145.660036,22 C145.660036,24.2007435 144.126582,25.8066914 142.014467,25.8066914 C139.931284,25.8066914 138.368897,24.1710037 138.368897,21.9702602 Z" id="a" fill="#FFFFFF" fill-rule="nonzero"></path>
    <path d="M119,30 L123.536481,30 L123.536481,21.6716418 C123.536481,20.5074627 123.686695,19.9402985 124.137339,19.4626866 C124.55794,19.0149254 125.339056,18.6865672 126.060086,18.6865672 C127.652361,18.6865672 128.463519,19.761194 128.463519,21.8208955 L128.463519,30 L133,30 L133,21.6119403 C133,18.5074627 132.669528,17.2537313 131.587983,16.0895522 C130.596567,15.0746269 129.124464,14.4776119 127.472103,14.4776119 C125.639485,14.4776119 124.257511,15.1343284 123.536481,16.358209 L123.536481,10 L119,10 L119,30 Z" id="h" fill="#FFFFFF" fill-rule="nonzero"></path>
    <path d="M113.525495,23.8026071 C112.612932,25.2029795 111.670931,25.7988827 110.257929,25.7988827 C108.22674,25.7988827 106.754863,24.2197393 106.754863,22.0446927 C106.754863,19.839851 108.22674,18.2011173 110.257929,18.2011173 C111.729806,18.2011173 112.936745,18.9757914 113.46662,20.2867784 L117.970562,20.2867784 C117.175749,16.5623836 113.996496,14 110.110742,14 C106.901331,14 104.212024,15.8664093 103,18.6304219 L103.000805,25.3079045 C104.227637,28.090566 106.966489,30 110.228492,30 C113.967058,30 117.116874,27.4674115 118,23.8026071 L113.525495,23.8026071 Z" id="c" fill="#FFFFFF" fill-rule="nonzero"></path>
    <path d="M96.8615665,29.5050946 L101,29.5050946 L101,10 L96.5992714,10 L96.5992714,16.1135371 C95.4335155,14.9199418 94.0928962,14.3668122 92.2859745,14.3668122 C88.0892532,14.3668122 85,17.6855895 85,22.1688501 C85,26.7103348 88.0892532,30 92.3442623,30 C94.3551913,30 95.6083789,29.4177584 96.8615665,27.9330422 L96.8615665,29.5050946 Z M89.4007286,22.139738 C89.4007286,20.014556 90.9744991,18.4716157 93.1602914,18.4716157 C95.2586521,18.4716157 96.8615665,20.0727802 96.8615665,22.1106259 C96.8615665,24.2649199 95.2586521,25.8951965 93.1020036,25.8951965 C90.9453552,25.8951965 89.4007286,24.3231441 89.4007286,22.139738 Z" id="d" fill="#FFFFFF" fill-rule="nonzero"></path>
    <path d="M75.985267,14 C78.6077348,14 80.6703499,14.9534451 82.2025783,16.83054 C83.3517495,18.2905028 84,20.1080074 84,21.9851024 C84,24.160149 83.145488,26.2458101 81.6721915,27.7653631 C80.228361,29.255121 78.2836096,30 75.9558011,30 C71.3296501,30 68,26.6331471 68,21.9553073 C68,19.839851 68.854512,17.7243948 70.3278085,16.2346369 C71.6832413,14.8342644 73.7753223,14 75.985267,14 Z M76.014733,18.2011173 C74.0405157,18.2011173 72.4493554,19.8696462 72.4493554,21.9553073 C72.4493554,24.160149 73.9815838,25.7988827 76.014733,25.7988827 C78.0184162,25.7988827 79.5506446,24.160149 79.5506446,21.9851024 C79.5506446,19.8994413 77.9594843,18.2011173 76.014733,18.2011173 Z" id="o" fill="#FFFFFF" fill-rule="nonzero"></path>
    <path d="M53,30 L57.8809524,30 L57.8809524,23.7313433 L60.0833333,23.7313433 C62.8809524,23.7313433 64.577381,23.2238806 65.8869048,22 C67.2261905,20.7462687 68,18.8358209 68,16.8059701 C68,14.6567164 67.1369048,12.7164179 65.6488095,11.4925373 C64.3392857,10.4179104 62.702381,10 59.5178571,10 L53,10 L53,30 Z M57.8809524,19.2238806 L57.8809524,14.5074627 L59.7559524,14.5074627 C60.9761905,14.5074627 61.7202381,14.6567164 62.1964286,14.9850746 C62.7619048,15.3432836 63.1190476,16.119403 63.1190476,16.8656716 C63.1190476,17.5522388 62.8214286,18.238806 62.3452381,18.6567164 C61.8392857,19.0746269 61.1547619,19.2238806 59.9345238,19.2238806 L57.8809524,19.2238806 Z" id="P" fill="#FFFFFF" fill-rule="nonzero"></path>
    <g id="Podchaser/Logo/Icon/Updated/Flat">
      <circle id="Outer-Pink" fill="#FF3382" fill-rule="nonzero" cx="19" cy="19" r="19"></circle>
      <circle id="Outer-White" fill="#FFFFFF" fill-rule="nonzero" cx="19" cy="19" r="16.34"></circle>
      <path d="M19,7.26956522 C25.7066579,7.26956522 31.1434783,12.7063856 31.1434783,19.4130435 C31.1434783,26.1197013 25.7066579,31.5565217 19,31.5565217 C17.1048808,31.5565217 15.3111549,31.1224058 13.7128406,30.3481923 L13.7129617,34.4831731 C11.0520799,33.5748063 8.70002673,31.9997967 6.85596598,29.9573081 L6.85652174,19.4130435 L6.86025161,19.1090844 C7.02156539,12.5428816 12.3949582,7.26956522 19,7.26956522 Z" id="Combined-Shape" fill="url(#linearGradient-1)" fill-rule="nonzero"></path>
      <circle id="Oval" fill-opacity="0.3" fill="url(#linearGradient-2)" style="mix-blend-mode: overlay;" cx="19" cy="19" r="19"></circle>
      <circle id="Oval" fill-opacity="0.2" fill="url(#radialGradient-3)" style="mix-blend-mode: overlay;" cx="19" cy="19" r="19"></circle>
      <circle id="Oval" cx="19" cy="19" r="16.4391304"></circle>
    </g>
  </g>
</svg>
