<svg version="1.0" xmlns="http://www.w3.org/2000/svg" title=Podchaser Logo with Text width="692.000000pt" height="272.000000pt" viewBox="0 0 692.000000 272.000000" preserveAspectRatio="xMidYMid meet">
  <g transform="translate(0.000000,272.000000) scale(0.100000,-0.100000)" fill="#000000" stroke="none">
    <path d="M920 1988 c-235 -33 -445 -225 -501 -458 -17 -70 -17 -200 0 -270 50
    -211 228 -390 441 -445 81 -21 215 -21 295 0 109 29 184 73 271 160 93 92 145
    184 169 300 28 133 11 257 -51 385 -49 99 -170 222 -265 268 -114 55 -242 77
    -359 60z m209 -83 c186 -44 342 -200 386 -386 89 -379 -242 -717 -624 -636
    l-55 12 3 65 c1 36 4 66 5 67 1 1 26 -5 55 -13 78 -23 191 -16 263 18 174 81
    266 278 212 458 -65 220 -317 335 -529 241 -61 -27 -146 -109 -178 -173 -38
    -76 -47 -138 -47 -336 0 -168 1 -177 23 -202 12 -14 1 -3 -25 24 -58 62 -104
    153 -123 243 -18 86 -18 130 0 216 61 290 345 470 634 402z"/>
    <path d="M2060 1385 l0 -305 75 0 75 0 0 94 0 93 88 5 c92 5 132 20 168 60 40
    43 57 90 58 153 0 66 -11 94 -57 143 -46 48 -106 62 -269 62 l-138 0 0 -305z
    m295 145 c26 -29 24 -79 -4 -102 -17 -13 -40 -18 -82 -18 l-59 0 0 70 0 70 63
    0 c51 0 68 -4 82 -20z"/>
    <path d="M3440 1595 c0 -52 -2 -95 -5 -95 -2 0 -21 11 -41 25 -71 48 -179 30
    -254 -43 -57 -55 -75 -107 -67 -197 7 -99 59 -176 139 -209 69 -29 171 -15
    208 29 14 17 15 16 20 -6 5 -22 12 -24 68 -27 l62 -3 0 311 0 310 -65 0 -65 0
    0 -95z m-50 -192 c40 -28 49 -45 50 -96 0 -43 -5 -54 -34 -83 -28 -28 -42 -34
    -76 -34 -76 0 -119 39 -120 108 0 79 38 121 110 122 27 0 56 -7 70 -17z"/>
    <path d="M4130 1385 l0 -305 64 0 64 0 4 151 c3 144 4 152 27 170 23 19 76 25
    97 11 27 -18 34 -56 34 -191 l0 -141 71 0 71 0 -4 184 c-3 168 -5 187 -24 212
    -36 49 -70 67 -132 72 -59 4 -122 -16 -122 -38 0 -6 -4 -10 -10 -10 -6 0 -10
    38 -10 95 l0 95 -65 0 -65 0 0 -305z"/>
    <path d="M2739 1539 c-55 -8 -116 -38 -145 -71 -51 -57 -59 -80 -59 -164 0
    -72 3 -85 30 -129 19 -31 49 -61 80 -80 44 -27 56 -30 134 -30 97 0 128 12
    185 71 101 104 82 281 -39 366 -46 33 -119 47 -186 37z m85 -133 c44 -18 66
    -51 66 -98 0 -72 -42 -120 -105 -120 -66 0 -114 44 -115 105 0 48 23 92 58
    111 34 19 54 19 96 2z"/>
    <path d="M3793 1539 c-57 -10 -119 -54 -149 -104 -21 -36 -24 -54 -24 -136 0
    -106 12 -137 74 -184 98 -74 228 -73 316 3 37 31 80 97 80 122 0 6 -26 10 -62
    10 -53 0 -66 -4 -89 -26 -48 -46 -121 -50 -163 -7 -32 31 -42 80 -26 128 14
    42 45 65 98 72 33 4 44 1 74 -26 32 -28 42 -31 102 -31 36 0 66 2 66 5 0 23
    -34 77 -70 108 -66 61 -140 82 -227 66z"/>
    <path d="M4793 1539 c-59 -11 -96 -32 -136 -79 -55 -65 -69 -145 -42 -238 19
    -63 66 -119 120 -143 73 -33 196 -18 231 29 12 15 13 14 14 -11 0 -28 0 -28
    63 -25 l62 3 3 228 2 227 -65 0 c-58 0 -65 -2 -65 -20 0 -11 -4 -20 -10 -20
    -5 0 -10 4 -10 10 0 28 -100 51 -167 39z m132 -145 c44 -29 57 -91 30 -148
    -19 -40 -47 -57 -95 -58 -95 -1 -149 87 -104 173 28 55 110 71 169 33z"/>
    <path d="M5695 1531 c-181 -85 -195 -343 -23 -436 96 -52 244 -44 322 18 l29
    23 -28 43 c-20 30 -33 40 -44 35 -68 -28 -108 -36 -153 -32 -51 5 -101 33
    -106 60 -2 13 22 16 150 22 140 6 155 9 171 28 22 26 17 69 -15 136 -48 102
    -197 152 -303 103z m140 -105 c29 -12 63 -52 53 -61 -2 -1 -47 -6 -100 -10
    -93 -6 -98 -6 -98 13 0 22 24 47 60 61 34 14 46 13 85 -3z"/>
    <path d="M5242 1523 c-51 -25 -87 -78 -87 -129 0 -74 46 -113 172 -144 51 -13
    74 -44 50 -67 -22 -23 -69 -19 -85 6 -12 18 -24 21 -78 21 -61 0 -64 -1 -64
    -24 0 -33 46 -85 95 -107 47 -22 133 -24 178 -5 43 17 97 80 99 114 5 87 -32
    129 -140 161 -38 12 -75 28 -82 36 -17 21 -6 43 26 51 22 6 31 3 42 -14 12
    -19 24 -22 78 -22 56 0 64 2 64 19 0 29 -42 82 -80 102 -44 24 -142 25 -188 2z"/>
    <path d="M6080 1305 l0 -235 65 0 65 0 0 135 c0 145 9 183 47 190 13 3 34 7
    47 10 18 4 29 17 41 49 25 66 19 80 -39 84 -26 2 -62 -2 -80 -8 -21 -7 -32 -7
    -34 0 -2 5 -28 10 -58 10 l-54 0 0 -235z"/>
  </g>
</svg>
